<?xml version="1.0" encoding="utf-8"?>
<!-- Generator: Adobe Illustrator 19.2.1, SVG Export Plug-In . SVG Version: 6.00 Build 0)  -->
<svg version="1.1" xmlns="http://www.w3.org/2000/svg" xmlns:xlink="http://www.w3.org/1999/xlink" x="0px" y="0px"
	 viewBox="0 0 48 48" style="enable-background:new 0 0 48 48;" xml:space="preserve">
<style type="text/css">
	.st0{display:none;}
	.st1{display:inline;fill:#3C5A99;}
	.st2{display:inline;fill:#5FA9DD;}
	.st3{display:inline;}
	.st4{fill:#C83C3E;}
	.st5{fill:#8B5B4F;}
	.st6{fill:#0778B6;}
</style>
<g id="Layer_1" class="st0">
	<path class="st1" d="M27.9,16.3v-4.6c0-2.1,0.5-3.1,3.7-3.1h4.1V0.8h-6.8c-8.3,0-11,3.8-11,10.3v5.2h-5.4V24h5.4v23.3h10.1V24h6.8
		l0.9-7.8H27.9z"/>
</g>
<g id="Layer_2" class="st0">
	<path class="st2" d="M46.5,10.1c-1.7,0.7-3.4,1.2-5.3,1.5c1.9-1.1,3.4-2.9,4.1-5.1c-1.8,1.1-3.7,1.8-5.9,2.2
		c-1.7-1.8-4.1-2.9-6.7-2.9c-5.1,0-9.2,4.1-9.2,9.2c0,0.7,0.1,1.4,0.2,2.1C16,16.7,9.2,13,4.7,7.4C3.9,8.8,3.4,10.4,3.4,12
		c0,3.2,1.6,6,4.1,7.7c-1.5,0-2.9-0.5-4.2-1.2c0,0,0,0.1,0,0.1c0,4.5,3.2,8.2,7.4,9c-0.8,0.2-1.6,0.3-2.4,0.3
		c-0.6,0-1.2-0.1-1.7-0.2c1.2,3.7,4.6,6.3,8.6,6.4c-3.1,2.5-7.1,3.9-11.4,3.9c-0.7,0-1.5,0-2.2-0.1c4.1,2.6,8.9,4.2,14.1,4.2
		c17,0,26.2-14.1,26.2-26.2c0-0.4,0-0.8,0-1.2C43.7,13.5,45.2,11.9,46.5,10.1z"/>
</g>
<g id="Layer_3" class="st0">
	<g class="st3">
		<path class="st4" d="M24,0.5C11,0.5,0.5,11,0.5,24c0,9.6,5.8,17.9,14.1,21.6c-0.1-1.6,0-3.6,0.4-5.4c0.5-1.9,3-12.8,3-12.8
			s-0.8-1.5-0.8-3.7c0-3.5,2-6.1,4.5-6.1c2.1,0,3.2,1.6,3.2,3.5c0,2.2-1.4,5.4-2.1,8.4c-0.6,2.5,1.3,4.5,3.7,4.5
			c4.5,0,7.5-5.7,7.5-12.5c0-5.2-3.5-9-9.8-9c-7.1,0-11.6,5.3-11.6,11.3c0,2,0.6,3.5,1.6,4.6c0.4,0.5,0.5,0.7,0.3,1.3
			c-0.1,0.4-0.4,1.5-0.5,1.9c-0.2,0.6-0.6,0.8-1.2,0.6c-3.3-1.3-4.8-4.9-4.8-9c0-6.7,5.6-14.7,16.8-14.7c9,0,14.9,6.5,14.9,13.5
			c0,9.2-5.1,16.1-12.7,16.1c-2.5,0-4.9-1.4-5.7-2.9c0,0-1.4,5.4-1.7,6.5c-0.5,1.8-1.5,3.6-2.4,5c2.1,0.6,4.4,1,6.7,1
			C37,47.5,47.5,37,47.5,24C47.5,11,37,0.5,24,0.5z"/>
	</g>
</g>
<g id="Layer_4" class="st0">
	<g class="st3">
		<circle class="st5" cx="24" cy="24" r="9.6"/>
	</g>
	<g class="st3">
		<path class="st5" d="M14.6,14.5c2.5-2.5,5.9-3.9,9.5-3.9s7,1.4,9.5,4c1.6,1.6,2.8,3.5,3.4,5.7H47V6.6C47,3.5,44.5,1,41.4,1H6.9
			C3.7,1,1,3.5,1,6.6v13.5h10.2C11.8,18,13,16.1,14.6,14.5z M43.2,11c0,0.8-0.7,1.5-1.5,1.5H37c-0.8,0-1.5-0.7-1.5-1.5V6.4
			c0-0.8,0.7-1.5,1.5-1.5h4.6c0.8,0,1.5,0.7,1.5,1.5V11z"/>
		<path class="st5" d="M33.5,33.4c-2.5,2.5-5.9,3.9-9.5,3.9s-7-1.4-9.5-3.9c-2.5-2.5-3.9-6-3.9-9.4H1v17.1C1,44.3,3.7,47,6.9,47
			h34.5c3.2,0,5.6-2.7,5.6-5.9V24h-9.5C37.5,27.5,36.1,30.9,33.5,33.4z"/>
	</g>
</g>
<g id="Layer_5">
	<g>
		<path class="st6" d="M43,1.4H5.3c-2.1,0-3.9,1.5-3.9,3.5v37.8c0,2,1.8,3.9,3.9,3.9H43c2.1,0,3.6-1.8,3.6-3.9V4.9
			C46.6,2.9,45,1.4,43,1.4z M15.4,39.1H8.9V18.9h6.5V39.1z M12.4,15.9L12.4,15.9c-2.1,0-3.5-1.5-3.5-3.5c0-2,1.4-3.5,3.5-3.5
			s3.4,1.5,3.5,3.5C15.9,14.3,14.6,15.9,12.4,15.9z M39.1,39.1h-6.5v-11c0-2.6-0.9-4.4-3.3-4.4c-1.8,0-2.8,1.2-3.3,2.4
			c-0.2,0.4-0.2,1-0.2,1.6v11.5h-6.5V18.9h6.5v2.8c0.9-1.3,2.4-3.3,5.8-3.3c4.3,0,7.5,2.8,7.5,8.8V39.1z"/>
	</g>
</g>
</svg>
